<?xml version="1.0" encoding="UTF-8"?>
<svg xmlns="http://www.w3.org/2000/svg"
     xmlns:xlink="http://www.w3.org/1999/xlink"
     xmlns:gadfly="http://www.gadflyjl.org/ns"
     version="1.2"
     width="141.42mm" height="100mm" viewBox="0 0 141.42 100"
     stroke="none"
     fill="#000000"
     stroke-width="0.3"
     font-size="3.88"
>
<g class="plotroot xscalable yscalable" id="img-f74332cd-1">
  <g font-size="3.88" font-family="'PT Sans','Helvetica Neue','Helvetica',sans-serif" fill="#564A55" stroke="#000000" stroke-opacity="0.000" id="img-f74332cd-2">
    <text x="77.19" y="88.39" text-anchor="middle" dy="0.6em">Carat</text>
  </g>
  <g class="guide xlabels" font-size="2.82" font-family="'PT Sans Caption','Helvetica Neue','Helvetica',sans-serif" fill="#6C606B" id="img-f74332cd-3">
    <text x="19.96" y="81.72" text-anchor="middle" dy="0.6em">0.0</text>
    <text x="58.11" y="81.72" text-anchor="middle" dy="0.6em">0.5</text>
    <text x="96.27" y="81.72" text-anchor="middle" dy="0.6em">1.0</text>
    <text x="134.42" y="81.72" text-anchor="middle" dy="0.6em">1.5</text>
  </g>
<g clip-path="url(#img-f74332cd-4)">
  <g id="img-f74332cd-5">
    <g pointer-events="visible" opacity="1" fill="#000000" fill-opacity="0.000" stroke="#000000" stroke-opacity="0.000" class="guide background" id="img-f74332cd-6">
      <rect x="17.96" y="5" width="118.46" height="75.72"/>
    </g>
    <g class="guide ygridlines xfixed" stroke-dasharray="0.5,0.5" stroke-width="0.2" stroke="#D0D0E0" id="img-f74332cd-7">
      <path fill="none" d="M17.96,78.72 L 136.42 78.72"/>
      <path fill="none" d="M17.96,60.79 L 136.42 60.79"/>
      <path fill="none" d="M17.96,42.86 L 136.42 42.86"/>
      <path fill="none" d="M17.96,24.93 L 136.42 24.93"/>
      <path fill="none" d="M17.96,7 L 136.42 7"/>
    </g>
    <g class="guide xgridlines yfixed" stroke-dasharray="0.5,0.5" stroke-width="0.2" stroke="#D0D0E0" id="img-f74332cd-8">
      <path fill="none" d="M19.96,5 L 19.96 80.72"/>
      <path fill="none" d="M58.11,5 L 58.11 80.72"/>
      <path fill="none" d="M96.27,5 L 96.27 80.72"/>
      <path fill="none" d="M134.42,5 L 134.42 80.72"/>
    </g>
    <g class="plotpanel" id="img-f74332cd-9">
      <g stroke-width="0.3" fill="#000000" fill-opacity="0.000" class="geometry" stroke-dasharray="none" stroke="#FF0000" id="img-f74332cd-10">
        <path fill="none" d="M42.38,76.43 L 42.77 76.19 42.77 76.19 42.89 76.12 43.08 76 43.12 75.97 43.33 75.85 43.33 75.85 43.34 75.84 43.34 75.84 43.46 75.76 43.57 75.7 43.7 75.62 43.8 75.56 43.8 75.56 44.03 75.42 44.03 75.42 44.31 75.25 44.31 75.25 44.47 75.15 44.79 74.95 44.84 74.92 44.98 74.84 45.08 74.78 45.13 74.74 45.21 74.7 45.24 74.68 45.24 74.68 45.36 74.6 45.38 74.59 45.38 74.59 45.66 74.42 45.67 74.42 45.69 74.4 45.78 74.35 45.8 74.33 45.87 74.29 45.9 74.28 45.96 74.24 46 74.21 46.03 74.2 46.03 74.2 46.08 74.16 46.16 74.11 46.26 74.06 46.27 74.05 46.36 74 46.42 73.96 46.48 73.92 46.64 73.82 46.91 73.66 46.97 73.62 46.97 73.62 47.01 73.6 47.01 73.6 47.13 73.53 47.2 73.48 47.2 73.48 47.21 73.47 47.25 73.45 47.27 73.44 47.35 73.39 47.35 73.39 47.45 73.33 47.47 73.31 47.5 73.3 47.5 73.3 47.58 73.25 47.67 73.2 47.67 73.19 47.74 73.15 47.76 73.14 47.86 73.08 47.91 73.05 47.98 73 47.99 73 48.12 72.92 48.19 72.88 48.19 72.88 48.23 72.85 48.24 72.85 48.26 72.83 48.57 72.64 48.83 72.48 48.89 72.45 49.04 72.36 49.32 72.19 49.85 71.86 50.11 71.7 51.99 70.55 52.62 70.17 53.5 69.64 54.19 69.21 55.61 68.35 55.9 68.17 56.34 67.9 56.8 67.62 57.01 67.49 57.43 67.23 57.45 67.22 57.75 67.04 57.96 66.91 58.28 66.72 58.63 66.5 58.68 66.47 58.68 66.47 58.7 66.46 58.72 66.45 58.78 66.41 58.78 66.41 59 66.27 59.06 66.24 59.12 66.2 59.19 66.16 59.19 66.16 59.19 66.16 59.19 66.16 59.35 66.06 59.35 66.06 59.57 65.92 59.8 65.79 59.8 65.79 59.86 65.75 59.86 65.75 59.97 65.68 59.97 65.68 60.02 65.65 60.07 65.62 60.07 65.62 60.16 65.57 60.16 65.57 60.36 65.44 60.36 65.44 60.39 65.43 60.48 65.37 60.48 65.37 60.75 65.21 60.78 65.19 60.81 65.17 60.85 65.14 60.89 65.12 61.06 65.01 61.24 64.91 61.24 64.91 61.3 64.87 61.53 64.73 61.65 64.66 61.68 64.64 61.68 64.64 62.09 64.39 62.5 64.14 62.53 64.12 62.93 63.88 63.34 63.62 63.41 63.58 63.82 63.33 63.82 63.33 63.88 63.3 63.88 63.3 64.15 63.13 64.2 63.1 64.47 62.93 65.55 62.27 66.03 61.98 66.38 61.77 66.57 61.65 67 61.39 67 61.39 67.68 60.97 68.16 60.68 68.16 60.68 68.7 60.35 68.7 60.35 68.7 60.35 68.7 60.35 68.7 60.35 68.7 60.35 69.12 60.09 69.12 60.09 69.12 60.09 69.12 60.09 69.53 59.84 69.9 59.62 69.94 59.59 70.25 59.4 70.58 59.2 70.98 58.96 70.98 58.96 71.43 58.69 71.55 58.61 71.87 58.41 71.87 58.41 72.13 58.26 72.32 58.14 72.69 57.92 72.69 57.92 72.77 57.86 72.77 57.86 72.89 57.79 72.95 57.76 73.16 57.63 73.16 57.63 73.49 57.43 73.63 57.34 74.1 57.05 74.16 57.02 74.42 56.86 74.8 56.63 75.53 56.18 75.53 56.18 76.04 55.87 76.04 55.87 76.3 55.71 76.77 55.43 76.87 55.36 77.22 55.15 77.86 54.76 78.02 54.66 78.59 54.31 78.59 54.31 78.95 54.09 79.04 54.04 79.17 53.96 79.17 53.96 79.26 53.91 79.66 53.66 79.66 53.66 80.15 53.36 80.65 53.06 81.83 52.33 81.89 52.3 83.72 51.18 83.91 51.07 84.53 50.68 84.53 50.68 84.99 50.41 86.16 49.69 86.16 49.69 86.63 49.4 86.63 49.4 87.71 48.74 87.79 48.7 88.27 48.4 89.19 47.84 89.8 47.47 90.19 47.23 90.23 47.2 90.23 47.2 90.23 47.2 90.73 46.9 90.73 46.9 90.73 46.9 90.73 46.9 91.15 46.64 91.23 46.59 91.86 46.21 92.1 46.06 92.37 45.89 92.37 45.89 92.47 45.84 92.67 45.72 92.67 45.72 93.2 45.39 93.25 45.36 93.48 45.22 94.02 44.89 94.29 44.72 94.29 44.72 94.78 44.42 94.84 44.39 95.11 44.22 95.27 44.13 95.39 44.06 95.66 43.89 95.84 43.78 95.92 43.73 96.48 43.38 96.67 43.27 96.7 43.25 96.74 43.23 96.74 43.23 97.31 42.88 97.88 42.53 98.94 41.88 98.94 41.88 99.53 41.52 99.99 41.24 100.7 40.81 100.8 40.75 100.8 40.75 100.8 40.75 100.8 40.75 101.41 40.38 101.41 40.38 101.53 40.3 102.02 40 102.63 39.63 105.68 37.77 105.68 37.77 106.34 37.37 107.31 36.78 107.98 36.36 119.51 29.32 120.3 28.84 120.32 28.83 121.13 28.33 130.12 22.84 132.62 21.31"/>
      </g>
      <g class="geometry" id="img-f74332cd-11">
        <g class="color_RGBA{Float32}(0.0f0,0.0f0,1.0f0,1.0f0)" stroke="#FFFFFF" stroke-width="0.3" fill="#0000FF" id="img-f74332cd-12">
          <use xlink:href="#img-f74332cd-13" x="42.85" y="74.05"/>
          <use xlink:href="#img-f74332cd-13" x="42.85" y="73.3"/>
          <use xlink:href="#img-f74332cd-13" x="42.85" y="73.3"/>
          <use xlink:href="#img-f74332cd-13" x="42.85" y="74.2"/>
          <use xlink:href="#img-f74332cd-13" x="43.61" y="72.83"/>
          <use xlink:href="#img-f74332cd-13" x="43.61" y="73.14"/>
          <use xlink:href="#img-f74332cd-13" x="43.61" y="73.6"/>
          <use xlink:href="#img-f74332cd-13" x="43.61" y="73.6"/>
          <use xlink:href="#img-f74332cd-13" x="43.61" y="74.68"/>
          <use xlink:href="#img-f74332cd-13" x="43.61" y="74.68"/>
          <use xlink:href="#img-f74332cd-13" x="44.38" y="73.45"/>
          <use xlink:href="#img-f74332cd-13" x="44.38" y="74.4"/>
          <use xlink:href="#img-f74332cd-13" x="45.14" y="73.96"/>
          <use xlink:href="#img-f74332cd-13" x="45.14" y="74.78"/>
          <use xlink:href="#img-f74332cd-13" x="45.9" y="72.64"/>
          <use xlink:href="#img-f74332cd-13" x="45.9" y="73.15"/>
          <use xlink:href="#img-f74332cd-13" x="45.9" y="73.66"/>
          <use xlink:href="#img-f74332cd-13" x="45.9" y="74.16"/>
          <use xlink:href="#img-f74332cd-13" x="45.9" y="74"/>
          <use xlink:href="#img-f74332cd-13" x="45.9" y="74.33"/>
          <use xlink:href="#img-f74332cd-13" x="46.67" y="72.48"/>
          <use xlink:href="#img-f74332cd-13" x="46.67" y="73"/>
          <use xlink:href="#img-f74332cd-13" x="46.67" y="73.53"/>
          <use xlink:href="#img-f74332cd-13" x="46.67" y="74.21"/>
          <use xlink:href="#img-f74332cd-13" x="47.43" y="72.85"/>
          <use xlink:href="#img-f74332cd-13" x="47.43" y="73.39"/>
          <use xlink:href="#img-f74332cd-13" x="48.19" y="73.62"/>
          <use xlink:href="#img-f74332cd-13" x="48.19" y="73.62"/>
          <use xlink:href="#img-f74332cd-13" x="50.48" y="71.86"/>
          <use xlink:href="#img-f74332cd-13" x="50.48" y="73.25"/>
          <use xlink:href="#img-f74332cd-13" x="51.24" y="71.7"/>
          <use xlink:href="#img-f74332cd-13" x="52.77" y="72.45"/>
          <use xlink:href="#img-f74332cd-13" x="54.3" y="73.08"/>
          <use xlink:href="#img-f74332cd-13" x="55.06" y="68.17"/>
          <use xlink:href="#img-f74332cd-13" x="56.59" y="69.64"/>
          <use xlink:href="#img-f74332cd-13" x="58.11" y="66.16"/>
          <use xlink:href="#img-f74332cd-13" x="58.11" y="66.16"/>
          <use xlink:href="#img-f74332cd-13" x="58.11" y="66.16"/>
          <use xlink:href="#img-f74332cd-13" x="58.11" y="66.91"/>
          <use xlink:href="#img-f74332cd-13" x="58.11" y="67.9"/>
          <use xlink:href="#img-f74332cd-13" x="58.88" y="65.92"/>
          <use xlink:href="#img-f74332cd-13" x="58.88" y="67.22"/>
          <use xlink:href="#img-f74332cd-13" x="59.64" y="66.2"/>
          <use xlink:href="#img-f74332cd-13" x="59.64" y="65.68"/>
          <use xlink:href="#img-f74332cd-13" x="59.64" y="65.68"/>
          <use xlink:href="#img-f74332cd-13" x="59.64" y="66.46"/>
          <use xlink:href="#img-f74332cd-13" x="60.4" y="64.66"/>
          <use xlink:href="#img-f74332cd-13" x="60.4" y="65.44"/>
          <use xlink:href="#img-f74332cd-13" x="60.4" y="66.24"/>
          <use xlink:href="#img-f74332cd-13" x="60.4" y="66.5"/>
          <use xlink:href="#img-f74332cd-13" x="61.17" y="65.21"/>
          <use xlink:href="#img-f74332cd-13" x="61.17" y="64.14"/>
          <use xlink:href="#img-f74332cd-13" x="61.93" y="63.88"/>
          <use xlink:href="#img-f74332cd-13" x="61.93" y="65.79"/>
          <use xlink:href="#img-f74332cd-13" x="61.93" y="66.06"/>
          <use xlink:href="#img-f74332cd-13" x="62.69" y="65.57"/>
          <use xlink:href="#img-f74332cd-13" x="62.69" y="68.35"/>
          <use xlink:href="#img-f74332cd-13" x="63.45" y="65.62"/>
          <use xlink:href="#img-f74332cd-13" x="64.98" y="65.19"/>
          <use xlink:href="#img-f74332cd-13" x="65.74" y="63.33"/>
          <use xlink:href="#img-f74332cd-13" x="67.27" y="57.76"/>
          <use xlink:href="#img-f74332cd-13" x="68.03" y="62.93"/>
          <use xlink:href="#img-f74332cd-13" x="68.8" y="61.65"/>
          <use xlink:href="#img-f74332cd-13" x="70.32" y="63.3"/>
          <use xlink:href="#img-f74332cd-13" x="73.37" y="58.96"/>
          <use xlink:href="#img-f74332cd-13" x="73.37" y="60.35"/>
          <use xlink:href="#img-f74332cd-13" x="73.37" y="60.35"/>
          <use xlink:href="#img-f74332cd-13" x="73.37" y="64.87"/>
          <use xlink:href="#img-f74332cd-13" x="74.14" y="57.63"/>
          <use xlink:href="#img-f74332cd-13" x="74.14" y="58.69"/>
          <use xlink:href="#img-f74332cd-13" x="74.14" y="60.09"/>
          <use xlink:href="#img-f74332cd-13" x="74.14" y="60.09"/>
          <use xlink:href="#img-f74332cd-13" x="74.9" y="59.84"/>
          <use xlink:href="#img-f74332cd-13" x="81.01" y="59.2"/>
          <use xlink:href="#img-f74332cd-13" x="82.53" y="60.97"/>
          <use xlink:href="#img-f74332cd-13" x="84.06" y="58.26"/>
          <use xlink:href="#img-f74332cd-13" x="84.82" y="54.31"/>
          <use xlink:href="#img-f74332cd-13" x="85.58" y="54.04"/>
          <use xlink:href="#img-f74332cd-13" x="87.87" y="54.66"/>
          <use xlink:href="#img-f74332cd-13" x="88.64" y="54.76"/>
          <use xlink:href="#img-f74332cd-13" x="58.11" y="66.16"/>
          <use xlink:href="#img-f74332cd-13" x="58.11" y="66.41"/>
          <use xlink:href="#img-f74332cd-13" x="58.88" y="64.91"/>
          <use xlink:href="#img-f74332cd-13" x="61.93" y="65.79"/>
          <use xlink:href="#img-f74332cd-13" x="62.69" y="64.73"/>
          <use xlink:href="#img-f74332cd-13" x="63.45" y="66.47"/>
          <use xlink:href="#img-f74332cd-13" x="65.74" y="63.33"/>
          <use xlink:href="#img-f74332cd-13" x="68.03" y="55.36"/>
          <use xlink:href="#img-f74332cd-13" x="73.37" y="57.92"/>
          <use xlink:href="#img-f74332cd-13" x="73.37" y="56.18"/>
          <use xlink:href="#img-f74332cd-13" x="73.37" y="60.35"/>
          <use xlink:href="#img-f74332cd-13" x="73.37" y="60.35"/>
          <use xlink:href="#img-f74332cd-13" x="73.37" y="60.35"/>
          <use xlink:href="#img-f74332cd-13" x="73.37" y="60.35"/>
          <use xlink:href="#img-f74332cd-13" x="74.14" y="55.87"/>
          <use xlink:href="#img-f74332cd-13" x="74.14" y="57.63"/>
          <use xlink:href="#img-f74332cd-13" x="74.14" y="60.09"/>
          <use xlink:href="#img-f74332cd-13" x="74.9" y="57.34"/>
          <use xlink:href="#img-f74332cd-13" x="74.9" y="58.41"/>
          <use xlink:href="#img-f74332cd-13" x="75.66" y="58.14"/>
          <use xlink:href="#img-f74332cd-13" x="75.66" y="60.68"/>
          <use xlink:href="#img-f74332cd-13" x="75.66" y="60.68"/>
          <use xlink:href="#img-f74332cd-13" x="75.66" y="61.77"/>
          <use xlink:href="#img-f74332cd-13" x="75.66" y="63.58"/>
          <use xlink:href="#img-f74332cd-13" x="76.43" y="57.86"/>
          <use xlink:href="#img-f74332cd-13" x="76.43" y="62.27"/>
          <use xlink:href="#img-f74332cd-13" x="77.19" y="52.3"/>
          <use xlink:href="#img-f74332cd-13" x="77.19" y="61.98"/>
          <use xlink:href="#img-f74332cd-13" x="77.19" y="63.1"/>
          <use xlink:href="#img-f74332cd-13" x="77.95" y="43.27"/>
          <use xlink:href="#img-f74332cd-13" x="78.72" y="53.91"/>
          <use xlink:href="#img-f74332cd-13" x="79.48" y="59.4"/>
          <use xlink:href="#img-f74332cd-13" x="81.01" y="61.39"/>
          <use xlink:href="#img-f74332cd-13" x="83.29" y="53.06"/>
          <use xlink:href="#img-f74332cd-13" x="88.64" y="51.18"/>
          <use xlink:href="#img-f74332cd-13" x="96.27" y="22.84"/>
          <use xlink:href="#img-f74332cd-13" x="96.27" y="37.77"/>
          <use xlink:href="#img-f74332cd-13" x="96.27" y="40.75"/>
          <use xlink:href="#img-f74332cd-13" x="96.27" y="43.73"/>
          <use xlink:href="#img-f74332cd-13" x="96.27" y="28.83"/>
          <use xlink:href="#img-f74332cd-13" x="96.27" y="40.75"/>
          <use xlink:href="#img-f74332cd-13" x="96.27" y="40.3"/>
          <use xlink:href="#img-f74332cd-13" x="96.27" y="44.72"/>
          <use xlink:href="#img-f74332cd-13" x="96.27" y="43.23"/>
          <use xlink:href="#img-f74332cd-13" x="96.27" y="44.22"/>
          <use xlink:href="#img-f74332cd-13" x="96.27" y="45.84"/>
          <use xlink:href="#img-f74332cd-13" x="96.27" y="45.72"/>
          <use xlink:href="#img-f74332cd-13" x="96.27" y="47.2"/>
          <use xlink:href="#img-f74332cd-13" x="96.27" y="49.69"/>
          <use xlink:href="#img-f74332cd-13" x="96.27" y="50.68"/>
          <use xlink:href="#img-f74332cd-13" x="97.03" y="21.31"/>
          <use xlink:href="#img-f74332cd-13" x="97.03" y="40.38"/>
          <use xlink:href="#img-f74332cd-13" x="97.03" y="43.38"/>
          <use xlink:href="#img-f74332cd-13" x="97.03" y="41.88"/>
          <use xlink:href="#img-f74332cd-13" x="97.03" y="44.39"/>
          <use xlink:href="#img-f74332cd-13" x="97.03" y="45.89"/>
          <use xlink:href="#img-f74332cd-13" x="97.03" y="46.9"/>
          <use xlink:href="#img-f74332cd-13" x="97.03" y="46.9"/>
          <use xlink:href="#img-f74332cd-13" x="97.03" y="48.4"/>
          <use xlink:href="#img-f74332cd-13" x="97.03" y="50.41"/>
          <use xlink:href="#img-f74332cd-13" x="97.79" y="41.52"/>
          <use xlink:href="#img-f74332cd-13" x="97.79" y="44.06"/>
          <use xlink:href="#img-f74332cd-13" x="97.79" y="42.53"/>
          <use xlink:href="#img-f74332cd-13" x="98.56" y="39.63"/>
          <use xlink:href="#img-f74332cd-13" x="99.32" y="40.81"/>
          <use xlink:href="#img-f74332cd-13" x="99.32" y="44.42"/>
          <use xlink:href="#img-f74332cd-13" x="100.08" y="47.23"/>
          <use xlink:href="#img-f74332cd-13" x="100.85" y="43.78"/>
          <use xlink:href="#img-f74332cd-13" x="100.85" y="45.36"/>
          <use xlink:href="#img-f74332cd-13" x="101.61" y="46.64"/>
          <use xlink:href="#img-f74332cd-13" x="103.9" y="44.13"/>
          <use xlink:href="#img-f74332cd-13" x="33.69" y="75.76"/>
          <use xlink:href="#img-f74332cd-13" x="33.69" y="75.97"/>
          <use xlink:href="#img-f74332cd-13" x="33.69" y="75.84"/>
          <use xlink:href="#img-f74332cd-13" x="33.69" y="75.84"/>
          <use xlink:href="#img-f74332cd-13" x="33.69" y="76.19"/>
          <use xlink:href="#img-f74332cd-13" x="33.69" y="76.12"/>
          <use xlink:href="#img-f74332cd-13" x="34.46" y="75.25"/>
          <use xlink:href="#img-f74332cd-13" x="34.46" y="74.95"/>
          <use xlink:href="#img-f74332cd-13" x="34.46" y="75.25"/>
          <use xlink:href="#img-f74332cd-13" x="34.46" y="75.62"/>
          <use xlink:href="#img-f74332cd-13" x="34.46" y="75.85"/>
          <use xlink:href="#img-f74332cd-13" x="34.46" y="75.7"/>
          <use xlink:href="#img-f74332cd-13" x="34.46" y="75.85"/>
          <use xlink:href="#img-f74332cd-13" x="34.46" y="76"/>
          <use xlink:href="#img-f74332cd-13" x="35.22" y="75.56"/>
          <use xlink:href="#img-f74332cd-13" x="35.22" y="75.56"/>
          <use xlink:href="#img-f74332cd-13" x="35.22" y="76.19"/>
          <use xlink:href="#img-f74332cd-13" x="35.22" y="76.43"/>
          <use xlink:href="#img-f74332cd-13" x="35.98" y="75.42"/>
          <use xlink:href="#img-f74332cd-13" x="35.98" y="74.59"/>
          <use xlink:href="#img-f74332cd-13" x="35.98" y="74.92"/>
          <use xlink:href="#img-f74332cd-13" x="35.98" y="75.42"/>
          <use xlink:href="#img-f74332cd-13" x="36.75" y="74.42"/>
          <use xlink:href="#img-f74332cd-13" x="37.51" y="74.24"/>
          <use xlink:href="#img-f74332cd-13" x="37.51" y="74.6"/>
          <use xlink:href="#img-f74332cd-13" x="37.51" y="75.15"/>
          <use xlink:href="#img-f74332cd-13" x="38.27" y="74.74"/>
          <use xlink:href="#img-f74332cd-13" x="39.04" y="73.39"/>
          <use xlink:href="#img-f74332cd-13" x="39.04" y="74.11"/>
          <use xlink:href="#img-f74332cd-13" x="39.04" y="74.59"/>
          <use xlink:href="#img-f74332cd-13" x="39.04" y="74.84"/>
          <use xlink:href="#img-f74332cd-13" x="39.8" y="73.2"/>
          <use xlink:href="#img-f74332cd-13" x="39.8" y="73.82"/>
          <use xlink:href="#img-f74332cd-13" x="39.8" y="74.2"/>
          <use xlink:href="#img-f74332cd-13" x="39.8" y="74.7"/>
          <use xlink:href="#img-f74332cd-13" x="40.56" y="73"/>
          <use xlink:href="#img-f74332cd-13" x="40.56" y="74.29"/>
          <use xlink:href="#img-f74332cd-13" x="41.32" y="74.42"/>
          <use xlink:href="#img-f74332cd-13" x="42.09" y="73.44"/>
          <use xlink:href="#img-f74332cd-13" x="42.09" y="74.28"/>
          <use xlink:href="#img-f74332cd-13" x="42.85" y="73.05"/>
          <use xlink:href="#img-f74332cd-13" x="42.85" y="73.48"/>
          <use xlink:href="#img-f74332cd-13" x="42.85" y="73.48"/>
          <use xlink:href="#img-f74332cd-13" x="42.85" y="74.35"/>
          <use xlink:href="#img-f74332cd-13" x="42.85" y="74.06"/>
          <use xlink:href="#img-f74332cd-13" x="43.61" y="72.88"/>
          <use xlink:href="#img-f74332cd-13" x="43.61" y="72.88"/>
          <use xlink:href="#img-f74332cd-13" x="43.61" y="73.92"/>
          <use xlink:href="#img-f74332cd-13" x="44.38" y="73.47"/>
          <use xlink:href="#img-f74332cd-13" x="45.14" y="73.33"/>
          <use xlink:href="#img-f74332cd-13" x="45.9" y="72.36"/>
          <use xlink:href="#img-f74332cd-13" x="45.9" y="72.85"/>
          <use xlink:href="#img-f74332cd-13" x="46.67" y="72.19"/>
          <use xlink:href="#img-f74332cd-13" x="46.67" y="73.19"/>
          <use xlink:href="#img-f74332cd-13" x="50.48" y="70.55"/>
          <use xlink:href="#img-f74332cd-13" x="51.24" y="72.92"/>
          <use xlink:href="#img-f74332cd-13" x="51.24" y="73.31"/>
          <use xlink:href="#img-f74332cd-13" x="55.82" y="69.21"/>
          <use xlink:href="#img-f74332cd-13" x="56.59" y="70.17"/>
          <use xlink:href="#img-f74332cd-13" x="58.11" y="65.62"/>
          <use xlink:href="#img-f74332cd-13" x="58.88" y="65.37"/>
          <use xlink:href="#img-f74332cd-13" x="58.88" y="65.37"/>
          <use xlink:href="#img-f74332cd-13" x="59.64" y="67.62"/>
          <use xlink:href="#img-f74332cd-13" x="61.93" y="65.43"/>
          <use xlink:href="#img-f74332cd-13" x="62.69" y="64.12"/>
          <use xlink:href="#img-f74332cd-13" x="62.69" y="66.27"/>
          <use xlink:href="#img-f74332cd-13" x="64.22" y="61.39"/>
          <use xlink:href="#img-f74332cd-13" x="64.22" y="63.62"/>
          <use xlink:href="#img-f74332cd-13" x="64.22" y="65.01"/>
          <use xlink:href="#img-f74332cd-13" x="73.37" y="58.61"/>
          <use xlink:href="#img-f74332cd-13" x="73.37" y="59.62"/>
          <use xlink:href="#img-f74332cd-13" x="74.14" y="56.63"/>
          <use xlink:href="#img-f74332cd-13" x="77.95" y="56.86"/>
          <use xlink:href="#img-f74332cd-13" x="79.48" y="57.43"/>
          <use xlink:href="#img-f74332cd-13" x="96.27" y="45.22"/>
          <use xlink:href="#img-f74332cd-13" x="97.03" y="43.89"/>
          <use xlink:href="#img-f74332cd-13" x="97.03" y="46.9"/>
          <use xlink:href="#img-f74332cd-13" x="97.03" y="49.4"/>
          <use xlink:href="#img-f74332cd-13" x="58.11" y="65.17"/>
          <use xlink:href="#img-f74332cd-13" x="58.11" y="66.41"/>
          <use xlink:href="#img-f74332cd-13" x="58.88" y="64.91"/>
          <use xlink:href="#img-f74332cd-13" x="59.64" y="66.72"/>
          <use xlink:href="#img-f74332cd-13" x="59.64" y="67.49"/>
          <use xlink:href="#img-f74332cd-13" x="60.4" y="64.39"/>
          <use xlink:href="#img-f74332cd-13" x="60.4" y="65.44"/>
          <use xlink:href="#img-f74332cd-13" x="61.93" y="66.06"/>
          <use xlink:href="#img-f74332cd-13" x="62.69" y="65.57"/>
          <use xlink:href="#img-f74332cd-13" x="62.69" y="67.23"/>
          <use xlink:href="#img-f74332cd-13" x="63.45" y="67.04"/>
          <use xlink:href="#img-f74332cd-13" x="63.45" y="66.47"/>
          <use xlink:href="#img-f74332cd-13" x="64.22" y="65.12"/>
          <use xlink:href="#img-f74332cd-13" x="65.74" y="64.64"/>
          <use xlink:href="#img-f74332cd-13" x="65.74" y="66.45"/>
          <use xlink:href="#img-f74332cd-13" x="65.74" y="64.64"/>
          <use xlink:href="#img-f74332cd-13" x="66.51" y="65.75"/>
          <use xlink:href="#img-f74332cd-13" x="67.27" y="65.75"/>
          <use xlink:href="#img-f74332cd-13" x="68.8" y="65.14"/>
          <use xlink:href="#img-f74332cd-13" x="69.56" y="65.65"/>
          <use xlink:href="#img-f74332cd-13" x="70.32" y="63.3"/>
          <use xlink:href="#img-f74332cd-13" x="73.37" y="54.09"/>
          <use xlink:href="#img-f74332cd-13" x="73.37" y="56.18"/>
          <use xlink:href="#img-f74332cd-13" x="73.37" y="57.92"/>
          <use xlink:href="#img-f74332cd-13" x="73.37" y="58.96"/>
          <use xlink:href="#img-f74332cd-13" x="73.37" y="63.13"/>
          <use xlink:href="#img-f74332cd-13" x="74.14" y="55.87"/>
          <use xlink:href="#img-f74332cd-13" x="74.14" y="60.09"/>
          <use xlink:href="#img-f74332cd-13" x="74.9" y="58.41"/>
          <use xlink:href="#img-f74332cd-13" x="75.66" y="59.59"/>
          <use xlink:href="#img-f74332cd-13" x="75.66" y="57.05"/>
          <use xlink:href="#img-f74332cd-13" x="76.43" y="57.86"/>
          <use xlink:href="#img-f74332cd-13" x="81.01" y="47.84"/>
          <use xlink:href="#img-f74332cd-13" x="81.01" y="53.96"/>
          <use xlink:href="#img-f74332cd-13" x="81.01" y="53.96"/>
          <use xlink:href="#img-f74332cd-13" x="81.01" y="55.71"/>
          <use xlink:href="#img-f74332cd-13" x="81.01" y="57.02"/>
          <use xlink:href="#img-f74332cd-13" x="81.77" y="47.47"/>
          <use xlink:href="#img-f74332cd-13" x="81.77" y="53.66"/>
          <use xlink:href="#img-f74332cd-13" x="81.77" y="53.66"/>
          <use xlink:href="#img-f74332cd-13" x="81.77" y="55.43"/>
          <use xlink:href="#img-f74332cd-13" x="81.77" y="52.33"/>
          <use xlink:href="#img-f74332cd-13" x="82.53" y="55.15"/>
          <use xlink:href="#img-f74332cd-13" x="82.53" y="53.36"/>
          <use xlink:href="#img-f74332cd-13" x="84.82" y="48.74"/>
          <use xlink:href="#img-f74332cd-13" x="84.82" y="54.31"/>
          <use xlink:href="#img-f74332cd-13" x="84.82" y="51.07"/>
          <use xlink:href="#img-f74332cd-13" x="85.58" y="57.79"/>
          <use xlink:href="#img-f74332cd-13" x="96.27" y="29.32"/>
          <use xlink:href="#img-f74332cd-13" x="96.27" y="28.33"/>
          <use xlink:href="#img-f74332cd-13" x="96.27" y="37.77"/>
          <use xlink:href="#img-f74332cd-13" x="96.27" y="40.75"/>
          <use xlink:href="#img-f74332cd-13" x="96.27" y="36.78"/>
          <use xlink:href="#img-f74332cd-13" x="96.27" y="40.75"/>
          <use xlink:href="#img-f74332cd-13" x="96.27" y="41.24"/>
          <use xlink:href="#img-f74332cd-13" x="96.27" y="43.23"/>
          <use xlink:href="#img-f74332cd-13" x="96.27" y="45.72"/>
          <use xlink:href="#img-f74332cd-13" x="96.27" y="44.72"/>
          <use xlink:href="#img-f74332cd-13" x="96.27" y="46.21"/>
          <use xlink:href="#img-f74332cd-13" x="96.27" y="47.2"/>
          <use xlink:href="#img-f74332cd-13" x="96.27" y="47.2"/>
          <use xlink:href="#img-f74332cd-13" x="96.27" y="48.7"/>
          <use xlink:href="#img-f74332cd-13" x="96.27" y="49.69"/>
          <use xlink:href="#img-f74332cd-13" x="96.27" y="50.68"/>
          <use xlink:href="#img-f74332cd-13" x="97.03" y="28.84"/>
          <use xlink:href="#img-f74332cd-13" x="97.03" y="37.37"/>
          <use xlink:href="#img-f74332cd-13" x="97.03" y="40.38"/>
          <use xlink:href="#img-f74332cd-13" x="97.03" y="36.36"/>
          <use xlink:href="#img-f74332cd-13" x="97.03" y="41.88"/>
          <use xlink:href="#img-f74332cd-13" x="97.03" y="42.88"/>
          <use xlink:href="#img-f74332cd-13" x="97.03" y="45.39"/>
          <use xlink:href="#img-f74332cd-13" x="97.03" y="44.89"/>
          <use xlink:href="#img-f74332cd-13" x="97.03" y="45.89"/>
          <use xlink:href="#img-f74332cd-13" x="97.03" y="46.9"/>
          <use xlink:href="#img-f74332cd-13" x="97.03" y="49.4"/>
          <use xlink:href="#img-f74332cd-13" x="97.79" y="40"/>
          <use xlink:href="#img-f74332cd-13" x="100.85" y="43.25"/>
          <use xlink:href="#img-f74332cd-13" x="97.79" y="46.59"/>
          <use xlink:href="#img-f74332cd-13" x="103.13" y="46.06"/>
        </g>
      </g>
    </g>
  </g>
</g>
  <g class="guide ylabels" font-size="2.82" font-family="'PT Sans Caption','Helvetica Neue','Helvetica',sans-serif" fill="#6C606B" id="img-f74332cd-14">
    <text x="16.96" y="78.72" text-anchor="end" dy="0.35em">0</text>
    <text x="16.96" y="60.79" text-anchor="end" dy="0.35em">5</text>
    <text x="16.96" y="42.86" text-anchor="end" dy="0.35em">10</text>
    <text x="16.96" y="24.93" text-anchor="end" dy="0.35em">15</text>
    <text x="16.96" y="7" text-anchor="end" dy="0.35em">20</text>
  </g>
  <g font-size="3.88" font-family="'PT Sans','Helvetica Neue','Helvetica',sans-serif" fill="#564A55" stroke="#000000" stroke-opacity="0.000" id="img-f74332cd-15">
    <text x="8.81" y="40.86" text-anchor="middle" dy="0.35em" transform="rotate(-90, 8.81, 42.86)">AdjustedPrice</text>
  </g>
</g>
<defs>
  <clipPath id="img-f74332cd-4">
  <path d="M17.96,5 L 136.42 5 136.42 80.72 17.96 80.72" />
</clipPath>
  <g id="img-f74332cd-13">
    <circle cx="0" cy="0" r="0.9"/>
  </g>
</defs>
</svg>
