<?xml version="1.0" encoding="UTF-8"?>
<svg xmlns="http://www.w3.org/2000/svg"
     xmlns:xlink="http://www.w3.org/1999/xlink"
     xmlns:gadfly="http://www.gadflyjl.org/ns"
     version="1.2"
     width="141.42mm" height="100mm" viewBox="0 0 141.42 100"
     stroke="none"
     fill="#000000"
     stroke-width="0.3"
     font-size="3.88"
>
<g class="plotroot xscalable yscalable" id="img-e95cb545-1">
  <g font-size="3.88" font-family="'PT Sans','Helvetica Neue','Helvetica',sans-serif" fill="#564A55" stroke="#000000" stroke-opacity="0.000" id="img-e95cb545-2">
    <text x="77.07" y="88.39" text-anchor="middle" dy="0.6em">Price</text>
  </g>
  <g class="guide xlabels" font-size="2.82" font-family="'PT Sans Caption','Helvetica Neue','Helvetica',sans-serif" fill="#6C606B" id="img-e95cb545-3">
    <text x="19.71" y="81.72" text-anchor="middle" dy="0.6em">-5.0×10³</text>
    <text x="42.65" y="81.72" text-anchor="middle" dy="0.6em">0</text>
    <text x="65.6" y="81.72" text-anchor="middle" dy="0.6em">5.0×10³</text>
    <text x="88.54" y="81.72" text-anchor="middle" dy="0.6em">1.0×10⁴</text>
    <text x="111.48" y="81.72" text-anchor="middle" dy="0.6em">1.5×10⁴</text>
    <text x="134.42" y="81.72" text-anchor="middle" dy="0.6em">2.0×10⁴</text>
  </g>
<g clip-path="url(#img-e95cb545-4)">
  <g id="img-e95cb545-5">
    <g pointer-events="visible" opacity="1" fill="#000000" fill-opacity="0.000" stroke="#000000" stroke-opacity="0.000" class="guide background" id="img-e95cb545-6">
      <rect x="17.71" y="5" width="118.71" height="75.72"/>
    </g>
    <g class="guide ygridlines xfixed" stroke-dasharray="0.5,0.5" stroke-width="0.2" stroke="#D0D0E0" id="img-e95cb545-7">
      <path fill="none" d="M17.71,78.72 L 136.42 78.72"/>
      <path fill="none" d="M17.71,54.81 L 136.42 54.81"/>
      <path fill="none" d="M17.71,30.9 L 136.42 30.9"/>
      <path fill="none" d="M17.71,7 L 136.42 7"/>
    </g>
    <g class="guide xgridlines yfixed" stroke-dasharray="0.5,0.5" stroke-width="0.2" stroke="#D0D0E0" id="img-e95cb545-8">
      <path fill="none" d="M19.71,5 L 19.71 80.72"/>
      <path fill="none" d="M42.65,5 L 42.65 80.72"/>
      <path fill="none" d="M65.6,5 L 65.6 80.72"/>
      <path fill="none" d="M88.54,5 L 88.54 80.72"/>
      <path fill="none" d="M111.48,5 L 111.48 80.72"/>
      <path fill="none" d="M134.42,5 L 134.42 80.72"/>
    </g>
    <g class="plotpanel" id="img-e95cb545-9">
      <g stroke-width="0.3" fill="#000000" fill-opacity="0.000" class="geometry" stroke-dasharray="none" stroke="#00BFFF" id="img-e95cb545-10">
        <path fill="none" d="M27.71,78.71 L 28.07 78.71 28.42 78.71 28.78 78.71 29.13 78.7 29.49 78.7 29.84 78.7 30.2 78.69 30.56 78.68 30.91 78.67 31.27 78.65 31.62 78.63 31.98 78.61 32.33 78.58 32.69 78.53 33.04 78.48 33.4 78.42 33.75 78.33 34.11 78.23 34.46 78.11 34.82 77.96 35.18 77.77 35.53 77.55 35.89 77.28 36.24 76.96 36.6 76.58 36.95 76.14 37.31 75.62 37.66 75.01 38.02 74.32 38.37 73.52 38.73 72.61 39.08 71.59 39.44 70.44 39.8 69.16 40.15 67.74 40.51 66.19 40.86 64.5 41.22 62.67 41.57 60.71 41.93 58.62 42.28 56.41 42.64 54.1 42.99 51.7 43.35 49.23 43.71 46.71 44.06 44.17 44.42 41.63 44.77 39.11 45.13 36.65 45.48 34.28 45.84 32.02 46.19 29.9 46.55 27.94 46.9 26.17 47.26 24.6 47.61 23.25 47.97 22.13 48.33 21.25 48.68 20.6 49.04 20.19 49.39 19.99 49.75 20 50.1 20.2 50.46 20.56 50.81 21.06 51.17 21.68 51.52 22.38 51.88 23.12 52.23 23.9 52.59 24.66 52.95 25.4 53.3 26.08 53.66 26.69 54.01 27.21 54.37 27.63 54.72 27.94 55.08 28.14 55.43 28.24 55.79 28.23 56.14 28.14 56.5 27.96 56.85 27.73 57.21 27.45 57.57 27.14 57.92 26.82 58.28 26.51 58.63 26.22 58.99 25.98 59.34 25.78 59.7 25.65 60.05 25.6 60.41 25.62 60.76 25.72 61.12 25.89 61.47 26.15 61.83 26.47 62.19 26.87 62.54 27.32 62.9 27.82 63.25 28.37 63.61 28.95 63.96 29.55 64.32 30.17 64.67 30.8 65.03 31.44 65.38 32.07 65.74 32.71 66.09 33.34 66.45 33.96 66.81 34.58 67.16 35.2 67.52 35.81 67.87 36.42 68.23 37.04 68.58 37.66 68.94 38.29 69.29 38.93 69.65 39.58 70 40.25 70.36 40.93 70.71 41.62 71.07 42.32 71.43 43.04 71.78 43.76 72.14 44.49 72.49 45.21 72.85 45.93 73.2 46.64 73.56 47.34 73.91 48.01 74.27 48.65 74.62 49.27 74.98 49.84 75.33 50.37 75.69 50.84 76.05 51.26 76.4 51.63 76.76 51.93 77.11 52.16 77.47 52.33 77.82 52.43 78.18 52.46 78.53 52.43 78.89 52.33 79.24 52.18 79.6 51.97 79.96 51.71 80.31 51.41 80.67 51.07 81.02 50.71 81.38 50.32 81.73 49.93 82.09 49.53 82.44 49.15 82.8 48.78 83.15 48.43 83.51 48.12 83.86 47.84 84.22 47.62 84.58 47.45 84.93 47.35 85.29 47.3 85.64 47.33 86 47.42 86.35 47.59 86.71 47.83 87.06 48.14 87.42 48.52 87.77 48.97 88.13 49.49 88.48 50.07 88.84 50.71 89.2 51.41 89.55 52.15 89.91 52.94 90.26 53.76 90.62 54.62 90.97 55.51 91.33 56.42 91.68 57.34 92.04 58.28 92.39 59.23 92.75 60.17 93.1 61.12 93.46 62.05 93.82 62.98 94.17 63.88 94.53 64.77 94.88 65.64 95.24 66.48 95.59 67.28 95.95 68.06 96.3 68.81 96.66 69.51 97.01 70.18 97.37 70.81 97.72 71.41 98.08 71.95 98.44 72.46 98.79 72.93 99.15 73.35 99.5 73.73 99.86 74.07 100.21 74.38 100.57 74.64 100.92 74.87 101.28 75.06 101.63 75.23 101.99 75.36 102.34 75.46 102.7 75.55 103.06 75.61 103.41 75.66 103.77 75.69 104.12 75.71 104.48 75.72 104.83 75.73 105.19 75.73 105.54 75.73 105.9 75.74 106.25 75.75 106.61 75.76 106.96 75.78 107.32 75.8 107.68 75.83 108.03 75.87 108.39 75.91 108.74 75.96 109.1 76.01 109.45 76.07 109.81 76.13 110.16 76.19 110.52 76.26 110.87 76.33 111.23 76.39 111.58 76.46 111.94 76.52 112.3 76.59 112.65 76.65 113.01 76.71 113.36 76.78 113.72 76.84 114.07 76.9 114.43 76.96 114.78 77.02 115.14 77.08 115.49 77.14 115.85 77.2 116.21 77.26 116.56 77.33 116.92 77.39 117.27 77.46 117.63 77.53 117.98 77.6 118.34 77.67 118.69 77.74 119.05 77.8 119.4 77.87 119.76 77.94 120.11 78 120.47 78.07 120.83 78.13 121.18 78.18 121.54 78.24 121.89 78.29 122.25 78.34 122.6 78.38 122.96 78.42 123.31 78.46 123.67 78.5 124.02 78.53 124.38 78.55 124.73 78.58 125.09 78.6 125.45 78.62 125.8 78.63 126.16 78.65 126.51 78.66 126.87 78.67 127.22 78.68 127.58 78.68 127.93 78.69 128.29 78.7 128.64 78.7 129 78.7 129.35 78.71 129.71 78.71 130.07 78.71 130.42 78.71 130.78 78.71 131.13 78.71 131.49 78.71 131.84 78.71 132.2 78.71 132.55 78.71 132.91 78.71 133.26 78.71 133.62 78.71 133.97 78.71"/>
      </g>
    </g>
  </g>
</g>
  <g class="guide ylabels" font-size="2.82" font-family="'PT Sans Caption','Helvetica Neue','Helvetica',sans-serif" fill="#6C606B" id="img-e95cb545-11">
    <text x="16.71" y="78.72" text-anchor="end" dy="0.35em">0.00000</text>
    <text x="16.71" y="54.81" text-anchor="end" dy="0.35em">0.00005</text>
    <text x="16.71" y="30.9" text-anchor="end" dy="0.35em">0.00010</text>
    <text x="16.71" y="7" text-anchor="end" dy="0.35em">0.00015</text>
  </g>
</g>
<defs>
  <clipPath id="img-e95cb545-4">
  <path d="M17.71,5 L 136.42 5 136.42 80.72 17.71 80.72" />
</clipPath>
</defs>
</svg>
